<svg width="303" height="123" viewBox="0 0 303 123" fill="none" xmlns="http://www.w3.org/2000/svg">
<path d="M42.2812 71.1094C42.2813 64.6475 44.1974 58.3307 47.7875 52.9579C51.3775 47.585 56.4801 43.3974 62.4501 40.9245C68.4201 38.4517 74.9894 37.8046 81.3271 39.0653C87.6648 40.3259 93.4864 43.4376 98.0556 48.0069C102.625 52.5761 105.737 58.3977 106.997 64.7354C108.258 71.0731 107.611 77.6424 105.138 83.6124C102.665 89.5824 98.4775 94.685 93.1046 98.2751C87.7318 101.865 81.415 103.781 74.9531 103.781H36.5156C30.9088 103.781 25.5316 101.554 21.5669 97.5893C17.6023 93.6247 15.375 88.2475 15.375 82.6406C15.375 77.0338 17.6023 71.6566 21.5669 67.692C25.5316 63.7273 30.9088 61.5 36.5156 61.5C38.855 61.488 41.1791 61.878 43.3863 62.6531" stroke="#009FFD" stroke-width="3" stroke-linecap="round" stroke-linejoin="round"/>
<path d="M38.2934 27.2426L36.2754 15.9036" stroke="#FFA400" stroke-width="3" stroke-linecap="round" stroke-linejoin="round"/>
<path d="M23.3988 36.756L13.9336 30.1255" stroke="#FFA400" stroke-width="3" stroke-linecap="round" stroke-linejoin="round"/>
<path d="M19.5551 53.9565L8.21606 55.9745" stroke="#FFA400" stroke-width="3" stroke-linecap="round" stroke-linejoin="round"/>
<path d="M55.4941 31.0863L62.1246 21.6211" stroke="#FFA400" stroke-width="3" stroke-linecap="round" stroke-linejoin="round"/>
<path d="M24.7922 65.0556C22.0979 61.8828 20.291 58.0536 19.555 53.9568C18.579 48.4149 19.6627 42.7074 22.6022 37.9091C25.5417 33.1107 30.134 29.5526 35.5145 27.9048C40.895 26.257 46.6923 26.6332 51.8147 28.9626C56.937 31.2919 61.0311 35.4137 63.3258 40.5517" stroke="#FFA400" stroke-width="3" stroke-linecap="round" stroke-linejoin="round"/>
<path d="M143.112 48.496V53.92H134.184V82H127.464V53.92H118.536V48.496H143.112ZM172.735 68.128C172.735 69.088 172.671 69.952 172.543 70.72H153.103C153.263 72.64 153.935 74.144 155.119 75.232C156.303 76.32 157.759 76.864 159.487 76.864C161.983 76.864 163.759 75.792 164.815 73.648H172.063C171.295 76.208 169.823 78.32 167.647 79.984C165.471 81.616 162.799 82.432 159.631 82.432C157.071 82.432 154.767 81.872 152.719 80.752C150.703 79.6 149.119 77.984 147.967 75.904C146.847 73.824 146.287 71.424 146.287 68.704C146.287 65.952 146.847 63.536 147.967 61.456C149.087 59.376 150.655 57.776 152.671 56.656C154.687 55.536 157.007 54.976 159.631 54.976C162.159 54.976 164.415 55.52 166.399 56.608C168.415 57.696 169.967 59.248 171.055 61.264C172.175 63.248 172.735 65.536 172.735 68.128ZM165.775 66.208C165.743 64.48 165.119 63.104 163.903 62.08C162.687 61.024 161.199 60.496 159.439 60.496C157.775 60.496 156.367 61.008 155.215 62.032C154.095 63.024 153.407 64.416 153.151 66.208H165.775ZM210.664 55.024C213.928 55.024 216.552 56.032 218.536 58.048C220.552 60.032 221.56 62.816 221.56 66.4V82H214.84V67.312C214.84 65.232 214.312 63.648 213.256 62.56C212.2 61.44 210.76 60.88 208.936 60.88C207.112 60.88 205.656 61.44 204.568 62.56C203.512 63.648 202.984 65.232 202.984 67.312V82H196.264V67.312C196.264 65.232 195.736 63.648 194.68 62.56C193.624 61.44 192.184 60.88 190.36 60.88C188.504 60.88 187.032 61.44 185.944 62.56C184.888 63.648 184.36 65.232 184.36 67.312V82H177.64V55.408H184.36V58.624C185.224 57.504 186.328 56.624 187.672 55.984C189.048 55.344 190.552 55.024 192.184 55.024C194.264 55.024 196.12 55.472 197.752 56.368C199.384 57.232 200.648 58.48 201.544 60.112C202.408 58.576 203.656 57.344 205.288 56.416C206.952 55.488 208.744 55.024 210.664 55.024ZM234.657 59.248C235.521 58.032 236.705 57.024 238.209 56.224C239.745 55.392 241.489 54.976 243.441 54.976C245.713 54.976 247.761 55.536 249.585 56.656C251.441 57.776 252.897 59.376 253.953 61.456C255.041 63.504 255.585 65.888 255.585 68.608C255.585 71.328 255.041 73.744 253.953 75.856C252.897 77.936 251.441 79.552 249.585 80.704C247.761 81.856 245.713 82.432 243.441 82.432C241.489 82.432 239.761 82.032 238.257 81.232C236.785 80.432 235.585 79.424 234.657 78.208V94.672H227.937V55.408H234.657V59.248ZM248.721 68.608C248.721 67.008 248.385 65.632 247.713 64.48C247.073 63.296 246.209 62.4 245.121 61.792C244.065 61.184 242.913 60.88 241.665 60.88C240.449 60.88 239.297 61.2 238.209 61.84C237.153 62.448 236.289 63.344 235.617 64.528C234.977 65.712 234.657 67.104 234.657 68.704C234.657 70.304 234.977 71.696 235.617 72.88C236.289 74.064 237.153 74.976 238.209 75.616C239.297 76.224 240.449 76.528 241.665 76.528C242.913 76.528 244.065 76.208 245.121 75.568C246.209 74.928 247.073 74.016 247.713 72.832C248.385 71.648 248.721 70.24 248.721 68.608ZM272.66 60.928H268.004V82H261.188V60.928H258.164V55.408H261.188V54.064C261.188 50.8 262.116 48.4 263.972 46.864C265.828 45.328 268.628 44.608 272.372 44.704V50.368C270.74 50.336 269.604 50.608 268.964 51.184C268.324 51.76 268.004 52.8 268.004 54.304V55.408H272.66V60.928ZM302.455 55.408L285.991 94.576H278.839L284.599 81.328L273.943 55.408H281.479L288.343 73.984L295.303 55.408H302.455Z" fill="white"/>
</svg>
